HIERARCHY
ROOT Hips
{
  OFFSET 279.157 85.6768 304.565
  CHANNELS 6 Xposition Yposition Zposition Zrotation Xrotation Yrotation
  JOINT LeftUpLeg
  {
    OFFSET 8.64259 1.95398 -2.38835
    CHANNELS 3 Zrotation Xrotation Yrotation
    JOINT LeftLeg
    {
      OFFSET 43.7702 0 0
      CHANNELS 3 Zrotation Xrotation Yrotation
      JOINT LeftFoot
      {
        OFFSET 40.6238 0 0
        CHANNELS 3 Zrotation Xrotation Yrotation
        JOINT LeftToeBase
        {
          OFFSET 12.7242 0 0
          CHANNELS 3 Zrotation Xrotation Yrotation
          End Site
          {
            OFFSET 0 0 0
          }
        }
      }
    }
  }
  JOINT RightUpLeg
  {
    OFFSET -8.2249 1.95398 -2.59336
    CHANNELS 3 Zrotation Xrotation Yrotation
    JOINT RightLeg
    {
      OFFSET 43.5653 0 0
      CHANNELS 3 Zrotation Xrotation Yrotation
      JOINT RightFoot
      {
        OFFSET 40.6238 0 0
        CHANNELS 3 Zrotation Xrotation Yrotation
        JOINT RightToeBase
        {
          OFFSET 12.7242 0 0
          CHANNELS 3 Zrotation Xrotation Yrotation
          End Site
          {
            OFFSET 0 0 0
          }
        }
      }
    }
  }
  JOINT Spine
  {
    OFFSET 0.165834 0.87714 6.61349
    CHANNELS 3 Zrotation Xrotation Yrotation
    JOINT Spine1
    {
      OFFSET 7.38963 1.71661e-005 0
      CHANNELS 3 Zrotation Xrotation Yrotation
      JOINT Spine2
      {
        OFFSET 11.9445 1.14441e-005 0
        CHANNELS 3 Zrotation Xrotation Yrotation
        JOINT Spine3
        {
          OFFSET 14.7254 4.19617e-005 0
          CHANNELS 3 Zrotation Xrotation Yrotation
          JOINT Spine4
          {
            OFFSET 10.9679 0 0
            CHANNELS 3 Zrotation Xrotation Yrotation
            JOINT RightShoulder
            {
              OFFSET 2.46616 -1.6653 3.69651
              CHANNELS 3 Zrotation Xrotation Yrotation
              JOINT RightArm
              {
                OFFSET 13.0012 0 0
                CHANNELS 3 Zrotation Xrotation Yrotation
                JOINT RightForeArm
                {
                  OFFSET 28.7848 1.52588e-005 0
                  CHANNELS 3 Zrotation Xrotation Yrotation
                  JOINT RightHand
                  {
                    OFFSET 26.5688 1.52588e-005 0
                    CHANNELS 3 Zrotation Xrotation Yrotation
                    End Site
                    {
                      OFFSET 0 0 0
                    }
                  }
                }
              }
            }
            JOINT LeftShoulder
            {
              OFFSET 2.38034 -1.29275 -3.7523
              CHANNELS 3 Zrotation Xrotation Yrotation
              JOINT LeftArm
              {
                OFFSET 16.3182 6.10351e-005 0
                CHANNELS 3 Zrotation Xrotation Yrotation
                JOINT LeftForeArm
                {
                  OFFSET 27.0901 0 0
                  CHANNELS 3 Zrotation Xrotation Yrotation
                  JOINT LeftHand
                  {
                    OFFSET 24.5451 1.52588e-005 0
                    CHANNELS 3 Zrotation Xrotation Yrotation
                    End Site
                    {
                      OFFSET 0 0 0
                    }
                  }
                }
              }
            }
            JOINT Neck
            {
              OFFSET 5.0226 -0.0266342 0
              CHANNELS 3 Zrotation Xrotation Yrotation
              JOINT Head
              {
                OFFSET 6.69364 2.86102e-005 0
                CHANNELS 3 Zrotation Xrotation Yrotation
                End Site
                {
                  OFFSET 0 0 0
                }
              }
            }
          }
        }
      }
    }
  }
}
MOTION
Frames:	17
Frame Time:	0.0416667
25.2309 100.534 19.7468 -101.238 -47.9963 -103.525 -174.72 0.261707 83.5143 -20.1721 2.29514 -2.54349 73.5281 5.63035 -1.47696 11.1588 -13.2168 7.60854 161.597 6.61449 71.9411 -19.1792 4.27194 2.55044 60.564 -1.24742 2.44431 32.945 -1.33788 -0.961446 1.33733 7.70987 -89.7409 11.4541 2.78188 0.233678 -0.213906 2.78948 0.110905 -22.7702 2.58298 1.0595 -2.75759 2.58296 1.05949 87.0152 -31.0274 -112.149 42.2939 -5.50505 -2.93603 2.86342 -22.7591 -12.8044 -31.3049 -1.24621 -4.80228 -88.512 -58.8293 82.5 -20.9155 2.30668 1.77653 3.51245 -0.817778 -6.00056 -0.198879 -0.0993417 -4.83441 -4.77274 24.8449 11.9715 4.65307 23.5827 2.40056 
25.321 100.546 19.7559 -101.642 -49.2685 -104.296 -174.649 0.283668 83.3604 -20.1684 3.78578 -2.77451 73.2552 5.83686 -1.24313 12.4906 -12.6674 8.37569 161.211 6.51885 71.3911 -19.3234 5.2005 2.72544 60.5652 -1.15582 2.72481 33.3608 -1.46509 -1.17429 1.37759 7.72806 -89.6769 11.4161 2.89188 0.351423 -0.25167 2.90457 0.223689 -22.809 2.65249 1.20488 -2.7964 2.65249 1.20489 86.9191 -31.2377 -112.238 42.3406 -6.12391 -3.00115 1.77076 -23.3681 -13.5869 -28.7831 -1.08699 -5.52092 -88.6735 -59.0689 82.3189 -19.7224 2.79117 0.661863 3.29254 -2.86906 -6.89963 -0.140805 -0.10421 -5.05296 -5.32523 24.0872 11.375 4.39467 22.9442 2.22219 
25.601 100.619 19.6122 -102.165 -49.7179 -104.641 -174.778 0.166642 83.3421 -19.9877 4.16666 -2.64054 72.9297 5.90881 -1.03209 12.2631 -12.6303 7.95869 161.467 5.87811 71.5091 -18.746 5.93122 2.61027 60.2991 -1.04511 2.55619 33.3075 -1.44989 -1.13225 1.38174 7.77169 -89.692 11.3292 2.89317 0.324197 -0.338501 2.90462 0.196432 -22.8961 2.66187 1.17931 -2.88344 2.66188 1.17931 87.1052 -31.1509 -111.921 42.3838 -6.32442 -3.72366 2.12444 -24.934 -13.7074 -29.9594 -1.33955 -4.84538 -88.9418 -59.0554 81.952 -19.1956 2.75789 -1.74377 3.61535 0.113528 -8.77027 0.229614 -0.127302 -5.99016 -5.33674 23.7835 10.986 4.45968 22.6923 2.47251 
25.8506 100.61 19.4677 -102.511 -49.2174 -104.856 -174.581 0.206392 83.3456 -20.7152 3.91428 -2.84606 73.5852 5.90266 -2.10394 12.2713 -13.7832 10.4481 161.791 5.90836 71.5813 -18.9964 5.7177 2.36879 60.4882 -1.03873 2.78234 32.7633 -1.19379 -1.84193 1.30112 7.84701 -89.7035 11.1784 2.72744 0.323158 -0.489723 2.73904 0.202709 -23.0447 2.50416 1.12842 -3.03204 2.50417 1.12842 86.9379 -31.0496 -112.288 41.9879 -6.35222 -4.44653 1.51724 -25.06 -14.7899 -30.4217 -1.47533 -4.30534 -88.773 -58.9083 82.1572 -18.9406 3.17673 -4.94888 4.11883 3.78155 -10.1144 -0.187485 -0.131707 -6.53567 -4.83093 23.3926 11.0872 4.54535 22.2118 1.99785 
26.0886 100.569 19.3218 -101.698 -47.2267 -104.1 -174.659 0.282213 83.1265 -20.1747 1.19797 -2.90753 73.1619 5.55417 -1.862 12.5177 -12.5609 8.18394 162.191 7.35542 71.7483 -19.9925 3.73241 2.16168 60.692 -1.02968 2.69396 32.0642 -0.947457 -1.79612 1.3235 7.86566 -89.7397 11.1421 2.7552 0.24961 -0.525962 2.76353 0.128005 -23.0818 2.55272 1.06665 -3.06916 2.55275 1.06665 87.7907 -30.5742 -110.855 42.2977 -6.60001 -4.85793 0.455166 -25.01 -16.1539 -30.2551 -1.05601 -6.11872 -89.2504 -59.2802 81.5713 -18.2741 4.13732 -7.67774 3.94128 5.06171 -10.751 -0.390206 -0.146222 -7.58863 -2.96159 20.3033 10.6883 3.90379 18.9108 0.619242 
26.0273 100.626 19.079 -101.256 -44.3317 -102.77 -174.228 0.0609921 83.8583 -20.2974 -0.669285 -3.03543 73.5727 5.55372 -2.28205 13.5435 -12.9358 10.5634 163.185 7.49394 72.942 -19.7872 1.8631 1.82843 60.4053 -0.908516 2.49723 31.5693 -0.7774 -1.72306 1.2472 7.95383 -89.756 10.9657 2.59597 0.238594 -0.702666 2.60394 0.124022 -23.2561 2.40418 1.0082 -3.2435 2.40418 1.00819 86.6098 -31.4629 -112.726 40.649 -6.32136 -5.13662 0.202407 -23.9013 -16.4505 -29.2727 -0.878755 -6.6166 -90.1379 -59.4794 80.4063 -18.3768 1.7472 -9.47822 5.47085 7.50716 -10.7705 0.0994189 -0.161236 -7.68494 -0.902655 12.982 8.40325 5.13979 11.6734 -0.388154 
25.5163 100.842 18.7524 -100.497 -40.8049 -100.724 -174.027 -0.211565 84.9821 -19.8972 -4.14799 -2.58486 73.2897 4.97943 -2.53666 14.027 -12.3512 10.034 164.408 6.93018 74.8194 -18.2153 -0.159256 1.65892 59.5029 -0.558095 2.30109 30.8412 -0.55165 -1.34302 1.0969 7.95436 -89.7786 10.9645 2.28624 0.223004 -0.704455 2.29384 0.122109 -23.2538 2.11347 0.900101 -3.24113 2.11348 0.900101 86.2401 -32.0463 -113.159 40.2352 -6.39805 -5.31886 1.56143 -24.131 -15.2991 -30.8591 -0.927051 -6.45257 -89.6727 -57.9813 80.7672 -18.5843 3.73032 -8.34457 4.43999 5.91914 -11.5096 1.4274 -0.185093 -7.14079 1.37446 2.38433 4.28157 4.20033 1.60244 -1.70172 
24.7635 101.134 18.1963 -99.2447 -36.6726 -98.1877 -173.929 -0.654427 86.2612 -18.2362 -7.42674 -2.06374 72.5147 4.83154 -1.63455 14.9895 -11.8724 10.4668 165.065 7.48543 77.4216 -18.0828 3.34346 2.89116 59.454 -0.712768 0.338157 27.428 0.212333 1.68522 0.921149 7.93044 -89.823 11.0127 1.91581 0.168835 -0.656885 1.9214 0.0843127 -23.202 1.77648 0.73699 -3.18937 1.77648 0.736984 85.7509 -32.5903 -113.824 39.6537 -5.95281 -4.7413 1.71412 -24.1859 -15.3443 -31.0959 -1.12493 -5.62794 -89.8213 -57.5358 80.4818 -19.2034 2.67435 -7.03499 4.92756 8.33065 -10.5444 -0.826556 -0.138852 -8.37261 2.49711 -9.13372 0.0852734 2.75158 -9.16279 -4.30182 
23.5645 101.577 17.4434 -97.7285 -31.9039 -94.8878 -173.62 -0.877635 88.3558 -16.9747 -13.8668 -1.20449 72.5013 4.12858 -4.14372 14.9867 -11.9203 10.5787 164.904 7.17733 81.2784 -18.3781 18.573 6.77214 60.5239 -1.27114 0.369629 23.7897 1.27821 2.50298 0.798916 7.89757 -89.9673 11.0803 1.60539 -0.0901004 -0.589661 1.59986 -0.160693 -23.1325 1.55824 0.396674 -3.11981 1.55822 0.396668 86.472 -32.5055 -112.516 39.7462 -6.24146 -4.45214 1.88181 -23.6172 -14.2611 -30.585 -0.884592 -6.50196 -89.6942 -57.1373 80.5842 -19.7834 4.38964 -6.35848 3.59087 6.18963 -8.93123 -1.59014 -0.113464 -7.72869 3.41895 -19.8815 -4.87786 0.394558 -18.8483 -5.63634 
21.7885 101.867 16.4797 -97.5247 -25.7484 -93.3254 -173.228 -3.31605 89.8136 -14.0389 -19.4065 -0.651326 70.8952 3.99331 -3.6783 16.6565 -10.6403 10.3317 167.154 5.12416 84.3131 -16.5945 22.8671 7.4485 61.8528 -1.48637 0.765165 21.0623 2.64079 0.161553 0.721158 7.93045 -90.0012 11.0145 1.43513 -0.13968 -0.65566 1.4276 -0.202724 -23.197 1.41077 0.298187 -3.18437 1.41075 0.298182 86.162 -32.774 -112.975 39.6407 -5.45684 -3.65245 1.95846 -24.1179 -13.6174 -28.8649 -0.74422 -7.29312 -89.8195 -56.1452 80.2251 -20.5654 5.28758 -5.15385 2.85656 6.14945 -7.83863 -1.3255 -0.120185 -7.67953 1.60099 -26.9259 -9.54917 0.654854 -25.2748 -7.09429 
19.483 101.817 15.4397 -97.2835 -17.8882 -91.8035 -172.517 -5.87026 91.0293 -12.3102 -26.8581 -0.449576 70.1434 3.83433 -4.80259 20.0196 -9.37601 13.0852 170.028 3.98233 87.2142 -15.0066 17.1434 5.35894 62.4477 -1.53732 0.233668 21.4484 2.31521 1.11384 0.639607 7.91436 -90.0544 11.0473 1.248 -0.228693 -0.623125 1.2367 -0.283402 -23.1631 1.25902 0.157015 -3.15046 1.259 0.157011 86.2311 -32.7837 -112.84 39.0526 -6.26336 -3.5714 2.42767 -26.1563 -13.6603 -28.6117 -0.953873 -6.88219 -90.1479 -55.4449 79.63 -21.7616 4.88889 -3.28267 2.96964 5.28337 -7.97397 -1.36671 -0.115289 -7.15174 1.26629 -29.2879 -11.5537 1.01084 -27.3814 -6.90889 
16.8987 101.649 14.0501 -97.7458 -9.93084 -90.4331 -171.017 -8.51524 92.6787 -12.24 -33.7782 -0.718177 70.0207 4.99921 -5.66965 21.3891 -8.68693 13.9518 172.418 2.46247 90.3946 -14.796 11.6775 3.93612 63.948 -1.58779 -0.398055 21.0254 2.30657 1.85983 0.440797 7.89584 -90.1558 11.0834 0.805522 -0.38779 -0.587388 0.787683 -0.422881 -23.1244 0.884813 -0.127753 -3.11174 0.884831 -0.127755 86.6407 -32.6095 -112.153 39.4767 -6.45065 -3.43734 1.20575 -27.3458 -14.7961 -27.7438 -1.03387 -6.84444 -90.1643 -55.2619 79.5707 -22.1271 6.21533 -2.80755 1.90134 -0.48874 -6.63691 -2.73535 -0.0765229 -8.76848 1.21302 -28.5097 -11.8155 1.5848 -26.5879 -6.45458 
14.3667 101.055 12.2986 -98.0674 -1.8373 -88.0134 -167.669 -9.00721 95.7487 -16.0523 -38.8356 -2.80153 68.8233 7.30059 -3.35822 26.05 -5.57988 14.7803 174.089 2.04259 93.0375 -17.1614 5.8806 3.15989 66.5477 -1.79966 0.0706866 20.4066 2.4547 2.13106 0.325009 7.87389 -90.3365 11.1272 0.490659 -0.717485 -0.543873 0.458654 -0.738395 -23.0788 0.683626 -0.536857 -3.06613 0.683614 -0.536857 87.3644 -31.2265 -111.391 40.2452 -7.04324 -3.47328 1.30879 -25.0632 -15.3991 -29.3212 -0.85551 -7.01838 -90.5403 -56.2112 79.2308 -19.8379 6.50951 -4.95553 1.91473 4.73023 -6.79907 -1.46401 -0.110856 -6.93355 2.33515 -27.7056 -9.90722 1.27907 -25.9315 -6.64674 
12.4904 100.302 10.2333 -99.1595 5.59056 -84.1769 -162.748 -4.513 101.728 -27.7542 -35.8934 -3.92225 80.1833 9.13483 -20.0539 29.0826 -26.1173 67.1511 174.95 0.510115 95.8655 -18.4244 -0.318802 3.35521 69.1734 -2.92966 -0.0975883 19.1355 2.38632 4.3387 0.259053 7.92051 -90.4707 11.0331 0.297451 -0.965215 -0.638223 0.254696 -0.977385 -23.1714 0.573794 -0.831213 -3.15871 0.573769 -0.831224 87.4729 -31.6478 -111 39.5587 -8.05224 -4.05581 1.34525 -24.0787 -15.1761 -27.6718 -0.835882 -6.87436 -90.5094 -55.044 79.0399 -19.9304 4.7104 -7.13156 3.36396 6.40788 -8.56151 0.803001 -0.174569 -7.3841 2.03958 -27.1347 -10.6056 1.32687 -25.2931 -6.45639 
11.1732 100.316 8.66433 -100.124 13.9221 -82.6205 -161.81 4.77012 103.723 -46.3956 -19.0192 -2.37318 68.2235 6.73262 1.77267 11.6978 -10.7897 4.05193 175.733 -2.03821 97.4687 -16.51 -7.14109 3.41436 67.9055 -2.94723 0.370113 20.0987 1.85925 5.41862 0.154235 7.9707 -90.5813 10.9315 0.0379315 -1.16001 -0.739994 -0.0131759 -1.16056 -23.2714 0.384789 -1.095 -3.25872 0.38478 -1.095 87.468 -31.8581 -110.919 39.2274 -6.94688 -4.7589 1.82 -25.6078 -14.2096 -26.8636 -1.00095 -6.51779 -90.5117 -54.8321 78.9937 -19.1542 4.01704 -9.62843 4.2231 5.29616 -10.8517 0.879508 -0.208772 -8.49995 0.959938 -26.4658 -10.7717 2.19338 -24.7491 -6.0758 
10.4034 99.8325 7.91969 -101.075 21.3767 -80.6933 -166.256 7.23522 103.327 -50.768 3.65258 1.40403 70.3997 8.23361 0.783973 18.3114 -8.08517 6.57995 176.493 -1.22603 98.6114 -19.6738 -13.8894 2.56923 69.0654 -3.80822 -0.815749 19.5303 1.99903 5.55762 0.123836 8.01907 -90.6141 10.8339 -0.0370097 -1.2179 -0.837599 -0.0905599 -1.21511 -23.3684 0.330697 -1.17274 -3.35578 0.330714 -1.17273 87.1263 -32.0676 -111.476 38.7302 -6.39576 -4.25176 2.62875 -27.1797 -13.6943 -28.2175 -1.01158 -6.88552 -90.5051 -54.5897 78.9535 -19.2799 3.84751 -12.1931 4.78132 3.77191 -13.5771 2.61696 -0.20847 -7.10753 0.0121701 -25.691 -11.0885 2.73471 -24.0535 -5.6267 
9.90307 99.6138 7.89518 -101.919 31.081 -79.0972 -169.107 7.87151 102.598 -44.7415 1.99888 2.71007 71.3741 8.62169 -1.79388 24.492 -5.42811 10.7197 176.797 -0.121609 98.3729 -21.873 -23.9886 1.43666 68.7483 -4.69112 -2.08129 19.9062 1.86621 5.65494 0.254905 7.99591 -90.6509 10.8815 0.206636 -1.31409 -0.790134 0.148617 -1.32192 -23.3209 0.592011 -1.19127 -3.30821 0.59202 -1.19127 87.1857 -31.638 -111.552 38.6729 -7.29221 -4.39696 2.56669 -25.8984 -13.0772 -28.7611 -0.957151 -6.78492 -90.8375 -55.78 78.7279 -18.0897 3.11353 -13.0323 6.37801 8.67211 -16.0237 2.46588 -0.300491 -9.33675 -0.502898 -23.8702 -8.90618 2.65419 -22.5911 -5.66343 
